<svg version="1.0" xmlns="http://www.w3.org/2000/svg"
 width="513.000000pt" height="513.000000pt" viewBox="0 0 513.000000 513.000000"
 preserveAspectRatio="xMidYMid meet">
<metadata>
Created by potrace 1.14, written by Peter Selinger 2001-2017
</metadata>
<g transform="translate(0.000000,513.000000) scale(0.100000,-0.100000)"
fill="#000000" stroke="none">
<path d="M1336 4922 c-8 -14 2 -412 13 -507 19 -155 34 -261 47 -320 22 -102
48 -189 52 -177 3 10 -18 90 -35 130 -4 11 -1 12 15 3 46 -25 145 -13 274 32
185 65 310 154 281 200 -13 22 -28 359 -19 430 5 37 6 70 4 73 -3 2 -18 -1
-34 -7 -16 -6 -85 -14 -154 -16 -111 -4 -135 -2 -218 20 -105 29 -156 57 -177
96 -17 35 -41 55 -49 43z"/>
<path d="M2063 3939 c-18 -23 -25 -57 -24 -125 1 -115 42 -221 119 -303 54
-57 55 -55 -38 -65 -25 -3 -70 -8 -101 -11 l-57 -7 -12 54 c-12 52 -29 93 -30
72 0 -7 -19 -8 -62 -2 -81 12 -226 3 -272 -16 -33 -14 -36 -14 -37 2 0 13 -2
12 -9 -5 -5 -12 -21 -24 -39 -28 -17 -3 -33 -15 -36 -25 -3 -11 -21 -37 -39
-59 -71 -84 -312 -603 -356 -766 -28 -102 -40 -196 -46 -389 -6 -144 -4 -182
11 -240 25 -98 83 -183 213 -306 129 -124 182 -166 239 -192 36 -16 44 -25 59
-70 27 -83 58 -147 113 -236 57 -93 170 -242 216 -285 16 -16 58 -56 92 -89
34 -33 102 -89 150 -124 48 -35 102 -75 120 -89 17 -14 48 -37 68 -51 20 -13
48 -35 62 -48 14 -13 57 -41 95 -62 38 -21 74 -46 79 -56 9 -17 85 -82 144
-123 16 -11 39 -31 52 -44 13 -13 23 -19 23 -14 0 6 11 14 24 17 13 3 26 14
29 23 9 27 59 115 82 144 11 14 34 34 50 44 59 38 122 92 231 200 98 97 136
143 180 220 6 11 42 70 79 130 37 61 81 141 96 179 16 38 34 75 39 81 16 19
90 242 96 289 3 23 6 59 7 81 2 35 11 50 70 111 71 76 158 197 203 286 15 29
43 78 61 109 71 117 62 326 -20 456 -13 21 -30 56 -37 78 -7 22 -30 77 -51
122 -21 46 -39 87 -39 91 0 13 -81 98 -111 117 -15 9 -40 35 -55 58 -41 61
-68 94 -137 167 -34 36 -93 101 -132 145 -38 44 -84 94 -100 110 -17 17 -53
60 -80 97 -44 60 -54 68 -85 69 -19 1 -38 1 -42 0 -8 -1 -415 -12 -433 -11 -7
0 -8 -24 -4 -67 3 -38 3 -71 0 -74 -3 -4 -45 -10 -93 -13 -87 -7 -88 -7 -89
16 -2 63 -24 127 -49 143 -5 3 -26 36 -46 73 -42 77 -127 162 -194 193 -57 28
-132 36 -147 18z m-658 -1331 c-16 -11 -17 -3 -8 74 l8 73 5 -70 c3 -40 1 -73
-5 -77z"/>
<path d="M1451 3890 c0 -8 4 -24 9 -35 5 -13 9 -14 9 -5 0 8 -4 24 -9 35 -5
13 -9 14 -9 5z"/>
<path d="M1472 3820 c0 -8 4 -26 8 -40 6 -20 8 -21 8 -5 0 11 -3 29 -8 40 -5
12 -8 14 -8 5z"/>
<path d="M1501 3684 c6 -21 13 -41 16 -44 9 -9 -9 65 -18 74 -4 5 -3 -8 2 -30z"/>
<path d="M1522 3620 c0 -8 4 -26 8 -40 6 -20 8 -21 8 -5 0 11 -3 29 -8 40 -5
12 -8 14 -8 5z"/>
</g>
</svg>
